<svg width="26" height="26" viewBox="0 0 26 26" fill="none" xmlns="http://www.w3.org/2000/svg">
<path d="M13 0.65625C6.04297 0.65625 0.40625 6.34375 0.40625 13.25C0.40625 20.207 6.04297 25.8438 13 25.8438C19.9062 25.8438 25.5938 20.207 25.5938 13.25C25.5938 6.34375 19.9062 0.65625 13 0.65625ZM13 3.09375C18.5859 3.09375 23.1562 7.66406 23.1562 13.25C23.1562 18.8867 18.5859 23.4062 13 23.4062C7.36328 23.4062 2.84375 18.8867 2.84375 13.25C2.84375 7.66406 7.36328 3.09375 13 3.09375ZM20.1094 9.74609L18.9414 8.57812C18.7383 8.32422 18.332 8.32422 18.0781 8.57812L10.918 15.6875L7.87109 12.6406C7.61719 12.3867 7.26172 12.3867 7.00781 12.6406L5.83984 13.7578C5.63672 14.0117 5.63672 14.418 5.83984 14.6211L10.4609 19.293C10.7148 19.5469 11.0703 19.5469 11.3242 19.293L20.1094 10.6094C20.3125 10.3555 20.3125 9.94922 20.1094 9.74609Z" fill="#008000"/>
</svg>
