<svg width="26" height="26" viewBox="0 0 26 26" fill="none" xmlns="http://www.w3.org/2000/svg">
<path d="M13 0.65625C6.04297 0.65625 0.40625 6.29297 0.40625 13.25C0.40625 20.207 6.04297 25.8438 13 25.8438C19.957 25.8438 25.5938 20.207 25.5938 13.25C25.5938 6.29297 19.957 0.65625 13 0.65625ZM13 23.4062C7.36328 23.4062 2.84375 18.8867 2.84375 13.25C2.84375 7.66406 7.36328 3.09375 13 3.09375C18.5859 3.09375 23.1562 7.66406 23.1562 13.25C23.1562 18.8867 18.5859 23.4062 13 23.4062ZM18.1289 10.1016C18.3828 9.89844 18.3828 9.49219 18.1289 9.23828L17.0117 8.12109C16.7578 7.86719 16.3516 7.86719 16.1484 8.12109L13 11.2695L9.80078 8.12109C9.59766 7.86719 9.19141 7.86719 8.9375 8.12109L7.82031 9.23828C7.56641 9.49219 7.56641 9.89844 7.82031 10.1016L10.9688 13.25L7.82031 16.4492C7.56641 16.6523 7.56641 17.0586 7.82031 17.3125L8.9375 18.4297C9.19141 18.6836 9.59766 18.6836 9.80078 18.4297L13 15.2812L16.1484 18.4297C16.3516 18.6836 16.7578 18.6836 17.0117 18.4297L18.1289 17.3125C18.3828 17.0586 18.3828 16.6523 18.1289 16.4492L14.9805 13.25L18.1289 10.1016Z" fill="#FF0000"/>
</svg>
